<mxfile host="app.diagrams.net" agent="Mozilla/5.0 (X11; Linux x86_64; rv:132.0) Gecko/20100101 Firefox/132.0" version="25.0.3">
  <diagram name="Page-1" id="93D8VJeSQDWaYxkTHIkE">
    <mxGraphModel dx="1038" dy="708" grid="1" gridSize="10" guides="1" tooltips="1" connect="1" arrows="1" fold="1" page="1" pageScale="1" pageWidth="850" pageHeight="1100" background="#ffffff" math="0" shadow="0">
      <root>
        <mxCell id="0" />
        <mxCell id="1" parent="0" />
        <mxCell id="5UmTIFThIS6gACjcOklM-1" value="Person" style="swimlane;fontStyle=0;childLayout=stackLayout;horizontal=1;startSize=26;horizontalStack=0;resizeParent=1;resizeParentMax=0;resizeLast=0;collapsible=1;marginBottom=0;align=center;fontSize=14;" vertex="1" parent="1">
          <mxGeometry x="50" y="240" width="160" height="86" as="geometry" />
        </mxCell>
        <mxCell id="5UmTIFThIS6gACjcOklM-2" value="&lt;u&gt;First Name&lt;/u&gt;" style="text;strokeColor=none;fillColor=none;spacingLeft=4;spacingRight=4;overflow=hidden;rotatable=0;points=[[0,0.5],[1,0.5]];portConstraint=eastwest;fontSize=12;whiteSpace=wrap;html=1;" vertex="1" parent="5UmTIFThIS6gACjcOklM-1">
          <mxGeometry y="26" width="160" height="30" as="geometry" />
        </mxCell>
        <mxCell id="5UmTIFThIS6gACjcOklM-3" value="&lt;u&gt;Last Name&lt;/u&gt;" style="text;strokeColor=none;fillColor=none;spacingLeft=4;spacingRight=4;overflow=hidden;rotatable=0;points=[[0,0.5],[1,0.5]];portConstraint=eastwest;fontSize=12;whiteSpace=wrap;html=1;" vertex="1" parent="5UmTIFThIS6gACjcOklM-1">
          <mxGeometry y="56" width="160" height="30" as="geometry" />
        </mxCell>
        <mxCell id="5UmTIFThIS6gACjcOklM-5" value="Location" style="swimlane;fontStyle=0;childLayout=stackLayout;horizontal=1;startSize=26;horizontalStack=0;resizeParent=1;resizeParentMax=0;resizeLast=0;collapsible=1;marginBottom=0;align=center;fontSize=14;" vertex="1" parent="1">
          <mxGeometry x="550" y="240" width="160" height="56" as="geometry" />
        </mxCell>
        <mxCell id="5UmTIFThIS6gACjcOklM-6" value="&lt;u&gt;Name&lt;/u&gt;" style="text;strokeColor=none;fillColor=none;spacingLeft=4;spacingRight=4;overflow=hidden;rotatable=0;points=[[0,0.5],[1,0.5]];portConstraint=eastwest;fontSize=12;whiteSpace=wrap;html=1;" vertex="1" parent="5UmTIFThIS6gACjcOklM-5">
          <mxGeometry y="26" width="160" height="30" as="geometry" />
        </mxCell>
        <mxCell id="5UmTIFThIS6gACjcOklM-8" value="Media" style="swimlane;fontStyle=0;childLayout=stackLayout;horizontal=1;startSize=26;horizontalStack=0;resizeParent=1;resizeParentMax=0;resizeLast=0;collapsible=1;marginBottom=0;align=center;fontSize=14;" vertex="1" parent="1">
          <mxGeometry x="300" y="30" width="160" height="86" as="geometry" />
        </mxCell>
        <mxCell id="5UmTIFThIS6gACjcOklM-9" value="&lt;u&gt;Filepath&lt;/u&gt;" style="text;strokeColor=none;fillColor=none;spacingLeft=4;spacingRight=4;overflow=hidden;rotatable=0;points=[[0,0.5],[1,0.5]];portConstraint=eastwest;fontSize=12;whiteSpace=wrap;html=1;" vertex="1" parent="5UmTIFThIS6gACjcOklM-8">
          <mxGeometry y="26" width="160" height="30" as="geometry" />
        </mxCell>
        <mxCell id="5UmTIFThIS6gACjcOklM-10" value="&lt;div&gt;Description&lt;/div&gt;" style="text;strokeColor=none;fillColor=none;spacingLeft=4;spacingRight=4;overflow=hidden;rotatable=0;points=[[0,0.5],[1,0.5]];portConstraint=eastwest;fontSize=12;whiteSpace=wrap;html=1;" vertex="1" parent="5UmTIFThIS6gACjcOklM-8">
          <mxGeometry y="56" width="160" height="30" as="geometry" />
        </mxCell>
        <mxCell id="5UmTIFThIS6gACjcOklM-14" style="edgeStyle=orthogonalEdgeStyle;rounded=0;orthogonalLoop=1;jettySize=auto;html=1;entryX=0;entryY=0.5;entryDx=0;entryDy=0;" edge="1" parent="1" source="5UmTIFThIS6gACjcOklM-11" target="5UmTIFThIS6gACjcOklM-9">
          <mxGeometry relative="1" as="geometry" />
        </mxCell>
        <mxCell id="5UmTIFThIS6gACjcOklM-15" style="edgeStyle=orthogonalEdgeStyle;rounded=0;orthogonalLoop=1;jettySize=auto;html=1;startArrow=none;startFill=0;endArrow=none;endFill=0;" edge="1" parent="1" source="5UmTIFThIS6gACjcOklM-11" target="5UmTIFThIS6gACjcOklM-1">
          <mxGeometry relative="1" as="geometry" />
        </mxCell>
        <mxCell id="5UmTIFThIS6gACjcOklM-11" value="contains" style="shape=rhombus;perimeter=rhombusPerimeter;whiteSpace=wrap;html=1;align=center;" vertex="1" parent="1">
          <mxGeometry x="70" y="130" width="120" height="60" as="geometry" />
        </mxCell>
        <mxCell id="5UmTIFThIS6gACjcOklM-17" style="edgeStyle=orthogonalEdgeStyle;rounded=0;orthogonalLoop=1;jettySize=auto;html=1;entryX=0.5;entryY=1;entryDx=0;entryDy=0;" edge="1" parent="1" source="5UmTIFThIS6gACjcOklM-16" target="5UmTIFThIS6gACjcOklM-8">
          <mxGeometry relative="1" as="geometry" />
        </mxCell>
        <mxCell id="5UmTIFThIS6gACjcOklM-18" style="edgeStyle=orthogonalEdgeStyle;rounded=0;orthogonalLoop=1;jettySize=auto;html=1;entryX=1;entryY=0.5;entryDx=0;entryDy=0;endArrow=none;endFill=0;" edge="1" parent="1" source="5UmTIFThIS6gACjcOklM-16" target="5UmTIFThIS6gACjcOklM-2">
          <mxGeometry relative="1" as="geometry" />
        </mxCell>
        <mxCell id="5UmTIFThIS6gACjcOklM-16" value="captured by" style="shape=rhombus;perimeter=rhombusPerimeter;whiteSpace=wrap;html=1;align=center;" vertex="1" parent="1">
          <mxGeometry x="320" y="251" width="120" height="60" as="geometry" />
        </mxCell>
        <mxCell id="5UmTIFThIS6gACjcOklM-21" style="edgeStyle=orthogonalEdgeStyle;rounded=0;orthogonalLoop=1;jettySize=auto;html=1;exitX=0;exitY=0.5;exitDx=0;exitDy=0;entryX=1;entryY=0.5;entryDx=0;entryDy=0;" edge="1" parent="1" source="5UmTIFThIS6gACjcOklM-19" target="5UmTIFThIS6gACjcOklM-9">
          <mxGeometry relative="1" as="geometry" />
        </mxCell>
        <mxCell id="5UmTIFThIS6gACjcOklM-22" style="edgeStyle=orthogonalEdgeStyle;rounded=0;orthogonalLoop=1;jettySize=auto;html=1;" edge="1" parent="1" source="5UmTIFThIS6gACjcOklM-19" target="5UmTIFThIS6gACjcOklM-5">
          <mxGeometry relative="1" as="geometry" />
        </mxCell>
        <mxCell id="5UmTIFThIS6gACjcOklM-19" value="taken at" style="shape=rhombus;perimeter=rhombusPerimeter;whiteSpace=wrap;html=1;align=center;" vertex="1" parent="1">
          <mxGeometry x="570" y="41" width="120" height="60" as="geometry" />
        </mxCell>
      </root>
    </mxGraphModel>
  </diagram>
</mxfile>
